# xmcd CD database file
#
# Track frame offsets:
#	150
#	12843
#	24186
#	34639
#	45686
#	57284
#	70054
#	80838
#	92764
#	103388
#	115430
#	126151
#	140155
#	152141
#	163346
#	174890
#	189215
#	200180
#	213059
#
# Disc length: 3001 seconds
#
# Revision: 1
# Processed by: cddbd v1.5.2PL0 Copyright (c) Steve Scherf et al.
# Submitted via: CDex 1.51
#
DISCID=0b0bb713
DTITLE=Jim Reeves - Let Me Remember
DYEAR=2003
DGENRE=Country
TTITLE0=Bimbo
TTITLE1=Penny Candy
TTITLE2=Hillbilly Waltz
TTITLE3=Gypsy Heart
TTITLE4=Are You The One?
TTITLE5=Butterfly Love
TTITLE6=My Rambling Heart
TTITLE7=How Many?
TTITLE8=Where Does A Broken Heart Go?
TTITLE9=The Wilder Your Heart Beats The Sweeter Your Love
TTITLE10=Let Me Remember (Things I Can't Forget)
TTITLE11=Each Beat Of My Heart
TTITLE12=Padre Of The Old San Antone
TTITLE13=Tahiti
TTITLE14=Give Me One More Kiss
TTITLE15=You're The Sweetest Thing
TTITLE16=Red Eyed And Rowdy
TTITLE17=A Woman's Love
TTITLE18=Shall We Gather At The River?
EXTD=YEAR: 2003
EXTT0=
EXTT1=
EXTT2=
EXTT3=
EXTT4=
EXTT5=
EXTT6=
EXTT7=
EXTT8=
EXTT9=
EXTT10=
EXTT11=
EXTT12=
EXTT13=
EXTT14=
EXTT15=
EXTT16=
EXTT17=
EXTT18=
PLAYORDER=
